<?xml version="1.0" encoding="utf-8"?>
<!-- Generator: Adobe Illustrator 25.4.1, SVG Export Plug-In . SVG Version: 6.00 Build 0)  -->
<svg version="1.1" id="Layer_1" xmlns="http://www.w3.org/2000/svg" xmlns:xlink="http://www.w3.org/1999/xlink" x="0px" y="0px"
	 viewBox="0 0 24 24" style="enable-background:new 0 0 24 24;" xml:space="preserve">
<style type="text/css">
	.st0{fill:none;}
</style>
<g>
	<path class="st0" d="M0,0h24v24H0V0z"/>
</g>
<g>
	<g>
		<path d="M20,4H4C2.9,4,2,4.9,2,6v12c0,1.1,0.9,2,2,2h16c1.1,0,2-0.9,2-2V6C22,4.9,21.1,4,20,4z M20,18H4V6h16V18z"/>
		<polygon points="6.5,10.5 6.5,15 7.6,15 7.6,9 6.8,9 5,10.3 5.6,11.2 		"/>
		<path d="M11.5,10.1c0.5,0,0.8,0.3,0.8,0.7c0,0.4-0.1,0.6-0.5,1.1c-0.4,0.4-1.1,1.1-2.1,2.1v1h3.9v-1h-2.4l0-0.1
			c0.7-0.7,1.1-1.1,1.4-1.4c0.6-0.6,0.9-1.2,0.9-1.9c0-0.2-0.1-1-0.9-1.5c-0.5-0.2-1.3-0.4-2,0c-0.8,0.4-1,1.1-1,1.1l1,0.4
			C10.7,10.4,10.9,10.1,11.5,10.1z"/>
		<path d="M17,13.9c-0.8,0-1-0.8-1-0.9l-1,0.4c0.4,1.6,2,1.5,2.1,1.5c1.2,0,1.7-0.7,1.8-0.9c0.3-0.5,0.4-1.2,0-1.8
			c-0.2-0.2-0.4-0.4-0.7-0.5v-0.1c0.2-0.1,0.4-0.3,0.5-0.5c0.3-0.4,0.3-1.1,0-1.6C18.5,9.6,18,9,16.9,9c-1.3,0-1.7,0.9-1.9,1.2
			l1,0.4c0.1-0.3,0.4-0.6,0.9-0.6c0.4,0,0.8,0.3,0.8,0.6c0,0.6-0.5,0.7-0.9,0.7h-0.5v1h0.5c0.6,0,1,0.2,1,0.8
			C17.9,13.7,17.4,13.9,17,13.9z"/>
	</g>
</g>
</svg>
